<svg xmlns="http://www.w3.org/2000/svg" viewBox="0 0 24 24" fill="#E4405F">
    <path d="M12 2.2c3.2 0 3.6 0 4.8.1 1.2.1 2 .3 2.5.6.6.3 1 .7 1.4 1.4.3.5.5 1.3.6 2.5.1 1.2.1 1.6.1 4.8s0 3.6-.1 4.8c-.1 1.2-.3 2-.6 2.5-.3.6-.7 1-1.4 1.4-.5.3-1.3.5-2.5.6-1.2.1-1.6.1-4.8.1s-3.6 0-4.8-.1c-1.2-.1-2-.3-2.5-.6-.6-.3-1-.7-1.4-1.4-.3-.5-.5-1.3-.6-2.5C2.2 15.6 2.2 15.2 2.2 12s0-3.6.1-4.8c.1-1.2.3-2 .6-2.5.3-.6.7-1 1.4-1.4.5-.3 1.3-.5 2.5-.6C8.4 2.2 8.8 2.2 12 2.2m0-2.2C8.7 0 8.3 0 7 .1 5.6.2 4.4.4 3.6.8c-.9.4-1.7 1-2.3 1.7S.4 4.1.1 5C0 5.8 0 7 0 8.4V12c0 4.3 0 5.7.1 6.9.1 1.4.3 2.6.7 3.4.4.9 1 1.7 1.7 2.3.7.7 1.5 1.2 2.3 1.6.9.4 2.1.6 3.4.7C8.3 24 8.7 24 12 24s3.7 0 5-.1c1.4-.1 2.6-.3 3.4-.7.9-.4 1.7-1 2.3-1.6.7-.7 1.2-1.5 1.6-2.3.4-.9.6-2.1.7-3.4.1-1.2.1-2.6.1-6.9V8.4c0-1.4 0-2.6-.1-3.4-.1-1.4-.3-2.6-.7-3.4-.4-.9-1-1.7-1.6-2.3C21.7.4 20.9 0 20.1.1 18.7 0 17.3 0 12 0z"/>
    <path d="M12 5.8A6.2 6.2 0 1 0 18.2 12 6.2 6.2 0 0 0 12 5.8m0 10.2A4 4 0 1 1 16 12a4 4 0 0 1-4 4zm6.4-10.8a1.44 1.44 0 1 1-1.44-1.44A1.44 1.44 0 0 1 18.4 5.2z"/>
</svg>